<mxfile host="65bd71144e">
    <diagram name="Страница — 1" id="QzuwhkyW6Af4PAKv8zFZ">
        <mxGraphModel dx="1104" dy="839" grid="1" gridSize="10" guides="1" tooltips="1" connect="1" arrows="1" fold="1" page="1" pageScale="1" pageWidth="10" pageHeight="10" background="none" math="0" shadow="0">
            <root>
                <mxCell id="0"/>
                <mxCell id="1" parent="0"/>
                <mxCell id="23VoCzAUsqaDL4NYXvOR-19" value="Каждый чётный номер" style="ellipse;whiteSpace=wrap;html=1;aspect=fixed;fontSize=10;fontFamily=Comfortaa;fontSource=https%3A%2F%2Ffonts.googleapis.com%2Fcss%3Ffamily%3DComfortaa;fillColor=none;" parent="1" vertex="1">
                    <mxGeometry x="70" y="140" width="60" height="60" as="geometry"/>
                </mxCell>
                <mxCell id="23VoCzAUsqaDL4NYXvOR-20" value="Каждый нечётный номер" style="ellipse;whiteSpace=wrap;html=1;aspect=fixed;fontSize=10;fontFamily=Comfortaa;fontSource=https%3A%2F%2Ffonts.googleapis.com%2Fcss%3Ffamily%3DComfortaa;fillColor=none;" parent="1" vertex="1">
                    <mxGeometry x="270" y="140" width="60" height="60" as="geometry"/>
                </mxCell>
                <mxCell id="3" value="&lt;font&gt;45°&lt;/font&gt;&lt;div&gt;&lt;font&gt;5м&lt;/font&gt;&lt;/div&gt;" style="text;html=1;align=center;verticalAlign=middle;whiteSpace=wrap;rounded=0;fontSize=8;fontFamily=Comfortaa;fontSource=https%3A%2F%2Ffonts.googleapis.com%2Fcss%3Ffamily%3DComfortaa;rotation=-45;" parent="1" vertex="1">
                    <mxGeometry x="94.39" y="100.61" width="90" height="25" as="geometry"/>
                </mxCell>
                <mxCell id="4" value="&lt;font&gt;45°&lt;/font&gt;&lt;div&gt;&lt;font&gt;5м&lt;/font&gt;&lt;/div&gt;" style="text;html=1;align=center;verticalAlign=middle;whiteSpace=wrap;rounded=0;fontSize=8;fontFamily=Comfortaa;fontSource=https%3A%2F%2Ffonts.googleapis.com%2Fcss%3Ffamily%3DComfortaa;rotation=45;" parent="1" vertex="1">
                    <mxGeometry x="215.61" y="100.61" width="90" height="25" as="geometry"/>
                </mxCell>
                <mxCell id="7" value="" style="endArrow=none;dashed=1;html=1;" parent="1" source="23VoCzAUsqaDL4NYXvOR-19" target="12" edge="1">
                    <mxGeometry width="50" height="50" relative="1" as="geometry">
                        <mxPoint x="170" y="140" as="sourcePoint"/>
                        <mxPoint x="175.51282051282044" y="90.5128205128205" as="targetPoint"/>
                    </mxGeometry>
                </mxCell>
                <mxCell id="8" value="" style="endArrow=none;dashed=1;html=1;" parent="1" source="23VoCzAUsqaDL4NYXvOR-20" target="12" edge="1">
                    <mxGeometry width="50" height="50" relative="1" as="geometry">
                        <mxPoint x="170" y="140" as="sourcePoint"/>
                        <mxPoint x="215.4878048780488" y="89.51219512195121" as="targetPoint"/>
                    </mxGeometry>
                </mxCell>
                <mxCell id="9" value="" style="endArrow=classic;html=1;" parent="1" source="12" edge="1">
                    <mxGeometry width="50" height="50" relative="1" as="geometry">
                        <mxPoint x="195" y="30" as="sourcePoint"/>
                        <mxPoint x="200" y="-10" as="targetPoint"/>
                    </mxGeometry>
                </mxCell>
                <mxCell id="10" value="" style="endArrow=classic;html=1;" parent="1" source="23VoCzAUsqaDL4NYXvOR-20" edge="1">
                    <mxGeometry width="50" height="50" relative="1" as="geometry">
                        <mxPoint x="300" y="140" as="sourcePoint"/>
                        <mxPoint x="360" y="110" as="targetPoint"/>
                    </mxGeometry>
                </mxCell>
                <mxCell id="11" value="" style="endArrow=classic;html=1;" parent="1" source="23VoCzAUsqaDL4NYXvOR-19" edge="1">
                    <mxGeometry width="50" height="50" relative="1" as="geometry">
                        <mxPoint x="205" y="40" as="sourcePoint"/>
                        <mxPoint x="40" y="110" as="targetPoint"/>
                    </mxGeometry>
                </mxCell>
                <mxCell id="12" value="&lt;span style=&quot;color: rgb(0, 0, 0);&quot;&gt;Первый номер&lt;/span&gt;" style="ellipse;whiteSpace=wrap;html=1;aspect=fixed;fontSize=10;fontFamily=Comfortaa;fontSource=https%3A%2F%2Ffonts.googleapis.com%2Fcss%3Ffamily%3DComfortaa;fillColor=none;" parent="1" vertex="1">
                    <mxGeometry x="170" y="40" width="60" height="60" as="geometry"/>
                </mxCell>
                <mxCell id="13" value="" style="shape=flexArrow;endArrow=classic;html=1;fontColor=none;noLabel=1;fillColor=none;" parent="1" edge="1">
                    <mxGeometry width="50" height="50" relative="1" as="geometry">
                        <mxPoint x="205.39" y="165" as="sourcePoint"/>
                        <mxPoint x="205" y="115" as="targetPoint"/>
                    </mxGeometry>
                </mxCell>
                <mxCell id="16" value="&lt;font style=&quot;font-size: 10px;&quot;&gt;Направление&lt;/font&gt;&lt;div&gt;&lt;font style=&quot;font-size: 10px;&quot;&gt;движения отделения&lt;/font&gt;&lt;/div&gt;" style="edgeLabel;html=1;align=center;verticalAlign=middle;resizable=0;points=[];labelBackgroundColor=none;fontFamily=Comfortaa;fontSource=https%3A%2F%2Ffonts.googleapis.com%2Fcss%3Ffamily%3DComfortaa;" parent="13" vertex="1" connectable="0">
                    <mxGeometry x="-0.2657" y="3" relative="1" as="geometry">
                        <mxPoint x="3" y="33" as="offset"/>
                    </mxGeometry>
                </mxCell>
            </root>
        </mxGraphModel>
    </diagram>
</mxfile>